<?xml version="1.0" encoding="UTF-8"?><svg id="_レイヤー_2" xmlns="http://www.w3.org/2000/svg" xmlns:xlink="http://www.w3.org/1999/xlink" viewBox="0 0 152.09 147.5"><defs><style>.cls-1{fill:#262626;}.cls-2{fill:#4c4948;}.cls-3{fill:none;}.cls-4{fill:url(#_名称未設定グラデーション_20);}.cls-5{fill:#0075c1;}</style><linearGradient id="_名称未設定グラデーション_20" x1="72.82" y1="70.63" x2="27.2" y2="25.01" gradientUnits="userSpaceOnUse"><stop offset="0" stop-color="#9ed8f5"/><stop offset=".19" stop-color="#84d2f3"/><stop offset=".6" stop-color="#44c2ef"/><stop offset="1" stop-color="#00b3ec"/></linearGradient></defs><g id="_レイヤー_1-2"><g><path class="cls-4" d="M84.33,65.82L32.38,13.87l5.26-5.26,51.96,51.96c1.38,1.38,1.38,3.62,0,5.01l-.26,.26c-1.38,1.38-3.62,1.38-5.01,0Zm-12.77-39.36l.26-.26c1.38-1.38,1.38-3.62,0-5.01L52.17,1.55c-2.06-2.06-5.41-2.06-7.47,0l-1.53,1.53,23.39,23.39c1.38,1.38,3.62,1.38,5.01,0Zm6.98,50.15l.26-.26c1.38-1.38,1.38-3.62,0-5.01L26.85,19.4l-5.26,5.26,51.96,51.96c1.38,1.38,3.62,1.38,5.01,0Zm-10.79,10.79l.26-.26c1.38-1.38,1.38-3.62,0-5.01L16.06,30.19l-5.26,5.26,51.96,51.96c1.38,1.38,3.62,1.38,5.01,0Zm-10.79,10.79l.26-.26c1.38-1.38,1.38-3.62,0-5.01L5.26,40.98,0,46.25l51.96,51.96c1.38,1.38,3.62,1.38,5.01,0Z"/><path class="cls-5" d="M51.34,34.75H124.82c1.95,0,3.54,1.59,3.54,3.54v.37c0,1.95-1.59,3.54-3.54,3.54H51.34v-7.44h0Z" transform="translate(180.59 2.13) rotate(135)"/><path class="cls-5" d="M75.03,9.67h33.08c1.95,0,3.54,1.59,3.54,3.54v.37c0,1.95-1.59,3.54-3.54,3.54h-27.8c-2.92,0-5.28-2.37-5.28-5.28v-2.16h0Z" transform="translate(168.81 -43.14) rotate(135)"/><path class="cls-5" d="M62.14,45.54h73.48c1.95,0,3.54,1.59,3.54,3.54v.37c0,1.95-1.59,3.54-3.54,3.54H62.14v-7.44h0Z" transform="translate(206.64 12.93) rotate(135)"/><path class="cls-5" d="M72.93,56.33h73.48c1.95,0,3.54,1.59,3.54,3.54v.37c0,1.95-1.59,3.54-3.54,3.54H72.93v-7.44h0Z" transform="translate(232.7 23.72) rotate(135)"/><path class="cls-5" d="M83.72,67.12h73.48c1.95,0,3.54,1.59,3.54,3.54v.37c0,1.95-1.59,3.54-3.54,3.54H83.72v-7.44h0Z" transform="translate(258.75 34.51) rotate(135)"/><g><path class="cls-2" d="M72.51,121.9h-11.07v3.9h8.69c.19-.32,.51-.54,.92-.54,.57,0,1.05,.48,1.05,1.05v19.03c0,.76-.6,1.36-1.4,1.36-.73,0-1.36-.6-1.36-1.36,0-.19,.03-.38,.13-.54h-1.43c-.25,0-.51-.25-.51-.51,0-.29,.25-.54,.51-.54h1.97v-16.62h-8.56v18.3c0,.54-.48,1.01-1.05,1.01-.54,0-1.01-.48-1.01-1.01v-18.3h-8.56v18.59c0,.6-.48,1.08-1.05,1.08s-1.05-.48-1.05-1.08v-19.28c0-.57,.48-1.05,1.05-1.05,.35,0,.63,.16,.82,.41h8.79v-3.9h-12.21c-.38,0-.7-.32-.7-.7s.32-.7,.7-.7h24.01c.03-.7,.6-1.24,1.3-1.24s1.33,.57,1.33,1.3-.6,1.33-1.3,1.33Z"/><path class="cls-5" d="M66.53,134.57c-.26,0-.53-.09-.74-.28l-2.35-2.09c-.46-.41-.5-1.11-.09-1.57,.41-.46,1.11-.5,1.57-.09l2.35,2.09c.46,.41,.5,1.11,.09,1.57-.22,.25-.52,.37-.83,.37Z"/><path class="cls-5" d="M66.53,140.54c-.26,0-.53-.09-.74-.28l-2.35-2.09c-.46-.41-.5-1.11-.09-1.57,.41-.46,1.11-.5,1.57-.09l2.35,2.09c.46,.41,.5,1.11,.09,1.57-.22,.25-.52,.37-.83,.37Z"/><path class="cls-5" d="M56.32,134.57c-.26,0-.53-.09-.74-.28l-2.35-2.09c-.46-.41-.5-1.11-.09-1.57,.41-.46,1.11-.5,1.57-.09l2.35,2.09c.46,.41,.5,1.11,.09,1.57-.22,.25-.52,.37-.83,.37Z"/><path class="cls-5" d="M56.32,140.54c-.26,0-.53-.09-.74-.28l-2.35-2.09c-.46-.41-.5-1.11-.09-1.57,.41-.46,1.11-.5,1.57-.09l2.35,2.09c.46,.41,.5,1.11,.09,1.57-.22,.25-.52,.37-.83,.37Z"/><g><path class="cls-1" d="M135.53,121.68h-3.58c-.54-.86-1.9-.51-1.9,.54v24.23c0,.57,.48,1.01,1.05,1.01s1.01-.44,1.01-1.01v-23.53h3.2v17.48h-1.21c-.29,0-.51,.22-.51,.51s.22,.51,.51,.51h.76c-.38,.86,.25,1.84,1.2,1.84,.7,0,1.3-.57,1.3-1.27l.03-19.66c0-1.01-1.27-1.4-1.87-.63Z"/><path class="cls-1" d="M111.98,145.84c0,.57,.44,1.01,1.01,1.01s1.05-.44,1.05-1.01v-18.92l-2.06,2.66v16.26Z"/><path class="cls-1" d="M127.98,130.81c.63,0,1.05-.48,1.05-1.05s-.48-1.05-1.05-1.05c-.51,0-.92,.35-1.01,.82h-2.6v-4.69h3.17c.6,0,1.08-.51,1.08-1.08s-.51-1.05-1.08-1.05c-.54,0-.92,.38-1.01,.89h-5.3c.57-.89,1.11-1.9,1.55-2.7,.82-.54,.7-1.68-.03-2.12-.6-.35-1.49-.16-1.74,.54-.7,1.93-1.84,4.73-2.92,6.91-.25,.54,.48,.98,.86,.54,.41-.48,.98-1.27,1.46-1.93h2v4.69h-4.41c-.35,0-.63,.29-.63,.63s.29,.63,.63,.63h4.41v10.09l-2.09,.35v-7.71c0-.54-.41-.95-.95-.95s-.95,.41-.95,.95v8.06l-.73,.13c-.92,.25-1.2,1.36-.7,2.03,.54,.7,1.65,.67,2.12-.1,2.12-.54,6.6-1.81,9.17-2.73,.57-.19,.35-1.08-.29-.98l-3.62,.6v-4.54h3.36c.6,0,1.05-.51,1.05-1.05,0-.57-.48-1.05-1.05-1.05-.51,0-.92,.35-1.01,.86h-2.35v-3.96h3.62Z"/></g><path class="cls-5" d="M110.15,126.16c-.2,0-.41-.08-.55-.25-.27-.31-.24-.77,.06-1.05l5.58-4.97c.31-.27,.77-.25,1.05,.06,.27,.31,.24,.77-.06,1.05l-5.58,4.97c-.14,.13-.32,.19-.49,.19Z"/><path class="cls-5" d="M110.15,131.32c-.2,0-.41-.08-.55-.25-.27-.31-.24-.77,.06-1.05l5.58-4.97c.31-.27,.77-.24,1.05,.06,.27,.31,.24,.77-.06,1.05l-5.58,4.97c-.14,.13-.32,.19-.49,.19Z"/><g><rect class="cls-3" x="23.07" y="124.63" width="11.42" height="1.93"/><path class="cls-1" d="M16.53,122.02h23.47c.73,0,1.24-.6,1.24-1.24,0-.67-.57-1.24-1.24-1.24s-1.14,.51-1.21,1.14h-9.1v-1.97c0-.63-.51-1.14-1.14-1.14s-1.17,.51-1.17,1.14v1.93h-10.85c-.38,0-.7,.32-.7,.7s.32,.67,.7,.67Z"/><path class="cls-1" d="M34.87,123.42h-12.15c-.67-.6-1.81-.16-1.81,.79v3.01c0,1.11,1.43,1.46,2,.54h11.73c.57,.92,2,.57,2-.54v-3.01c0-.95-1.11-1.4-1.78-.79Zm-.38,3.14h-11.42v-1.93h11.42v1.93Z"/><path class="cls-1" d="M18.21,130.33h21.15l-.98,1.84c-.25,.44,.32,.98,.73,.67l1.62-1.17c1.21,.29,2.25-.98,1.65-2.12-.41-.79-1.43-.98-2.16-.48H18.15c.06-.82-.89-.86-1.01-.29-.25,1.14-.82,2.03-1.55,2.79-.76,.22-1.17,1.14-.67,1.9,.44,.7,1.33,.76,1.97,.29,.76-.6,1.27-1.74,1.33-3.42Z"/></g><path class="cls-5" d="M21.71,142.59c-.2,0-.41-.08-.55-.25-.27-.31-.25-.77,.06-1.05l3.65-3.25c.31-.27,.77-.24,1.05,.06,.27,.31,.25,.77-.06,1.05l-3.65,3.25c-.14,.13-.32,.19-.49,.19Z"/><path class="cls-5" d="M23.26,144.93c-.2,0-.41-.08-.55-.25-.27-.31-.25-.77,.06-1.05l3.65-3.25c.31-.27,.77-.24,1.05,.06,.27,.31,.25,.77-.06,1.05l-3.65,3.25c-.14,.13-.32,.19-.49,.19Z"/><path class="cls-1" d="M27.22,135.88l1.05,1.49c.16,.25,.32,.57,.44,.79l.82,1.93c.38,1.24,.35,2.35,.03,3.14-.35,.82-1.01,1.43-1.87,1.68l-2.51-.22c-.29-.03-.54,.19-.57,.48-.03,.29,.19,.51,.48,.54l.79,.1c-.51,.89,.19,1.78,1.11,1.68,2.06-.19,3.81-1.52,4.47-3.52,.89-2.63-.42-6.36-4-9.56l-.78,.81c.19,.25,.35,.41,.54,.67Z"/><path class="cls-5" d="M18.5,141.22c-.2,0-.41-.08-.55-.25-.27-.31-.25-.77,.06-1.05l7.99-7.13c.31-.27,.77-.24,1.05,.06,.27,.31,.25,.77-.06,1.05l-7.99,7.13c-.14,.13-.32,.19-.49,.19Z"/><path class="cls-1" d="M43.02,143.21c-4.44-.76-7.52-2.76-9.58-4.79,.89-.35,2.13-.89,2.79-1.24,.82,.06,1.52-.41,1.49-1.3-.03-1.17-1.4-1.71-2.28-.79-.44,.48-2,1.93-2.76,2.54-.95-1.08-2.03-2.6-2.66-4.03h5.33c.57,0,1.11-.48,1.11-1.14,0-.6-.51-1.08-1.11-1.08-.57,0-1.01,.41-1.08,.95h-14.02c-.35,0-.63,.29-.63,.63s.29,.63,.63,.63h8.65c1.78,5.05,5.97,9.83,11.17,11.86,1.05,.41,2.09-.25,1.78-1.43l1.01,.19c.29,.03,.54-.13,.57-.41,.03-.29-.13-.57-.41-.6Z"/><g><path class="cls-1" d="M93.88,127.7c-.6,0-1.14,.48-1.2,1.08h-5.33v-3.23h5.14c.67,0,1.27-.41,1.27-1.14,0-.63-.51-1.14-1.14-1.14-.57,0-1.08,.41-1.14,.98h-4.12v-4.44c0-.57-.48-1.08-1.05-1.08s-1.05,.51-1.05,1.08v4.44h-5.95l.04,1.3h5.91v3.2h-6.6c-.38,0-.67,.32-.67,.7s.29,.67,.67,.67h6.6v2.85h-3.49c-.63-.73-1.87-.32-1.87,.7v10.21c0,.6,.48,1.08,1.08,1.08s1.05-.48,1.05-1.08v-9.61h3.23v11.45c0,.57,.48,1.08,1.05,1.08s1.05-.51,1.05-1.08v-11.45h3.49v7.83h-1.43c-.29,0-.51,.22-.51,.51s.22,.51,.51,.51h1.01c-.38,.86,.25,1.84,1.2,1.84,.82,0,1.3-.63,1.3-1.43v-9.86c0-.98-1.2-1.4-1.84-.7h-3.74v-2.85h6.53c.67,0,1.21-.54,1.21-1.21s-.54-1.2-1.21-1.2Z"/><path class="cls-1" d="M97.47,121.11c-.6,0-1.08,.48-1.08,1.08v18.3c0,.6,.48,1.05,1.08,1.05s1.08-.44,1.08-1.05v-18.3c0-.6-.48-1.08-1.08-1.08Z"/><path class="cls-1" d="M103.62,119.2c-.6,0-1.08,.48-1.08,1.08v23.66h-1.78c-.29,0-.51,.22-.51,.51s.22,.54,.51,.54h1.3c-.41,.89,.25,1.97,1.27,1.97,.86,0,1.4-.7,1.4-1.49v-25.18c0-.6-.51-1.08-1.11-1.08Z"/></g><path class="cls-5" d="M78.74,126.16c-.2,0-.41-.08-.55-.25-.27-.31-.24-.77,.06-1.05l4.17-3.72c.31-.27,.77-.24,1.05,.06,.27,.31,.24,.77-.06,1.05l-4.17,3.72c-.14,.13-.32,.19-.49,.19Z"/></g></g></g></svg>